<?xml version="1.0" encoding="utf-8"?>
<!-- Generator: Adobe Illustrator 16.0.0, SVG Export Plug-In . SVG Version: 6.00 Build 0)  -->
<!DOCTYPE svg PUBLIC "-//W3C//DTD SVG 1.1//EN" "http://www.w3.org/Graphics/SVG/1.1/DTD/svg11.dtd">
<svg version="1.1" id="Layer_1" xmlns="http://www.w3.org/2000/svg" xmlns:xlink="http://www.w3.org/1999/xlink" x="0px" y="0px"
	 width="512px" height="512px" viewBox="0 0 512 512" enable-background="new 0 0 512 512" xml:space="preserve">
<g id="_x32__shop_x2C__shopping_x2C__commerce_x2C__supermarket_x2C__market_x2C__cart">
	<g>
		<path fill="#656D78" d="M228.002,471.966c0,15.467-12.533,27.996-27.996,27.996s-27.996-12.529-27.996-27.996
			c0-15.458,12.533-27.995,27.996-27.995S228.002,456.508,228.002,471.966z"/>
	</g>
	<g>
		<path fill="#656D78" d="M435.969,471.966c0,15.467-12.528,27.996-27.995,27.996c-15.466,0-27.995-12.529-27.995-27.996
			c0-15.458,12.529-27.995,27.995-27.995C423.44,443.971,435.969,456.508,435.969,471.966z"/>
	</g>
	<g>
		<polygon fill="#AC92EC" points="112.021,132.021 111.701,132.1 171.691,354.868 475.963,331.989 507.958,132.021 		"/>
	</g>
	<g opacity="0.3">
		<polygon fill="#FFFFFF" points="491.96,132.021 459.965,331.989 171.375,353.688 171.691,354.868 475.963,331.989 
			507.958,132.021 		"/>
	</g>
	<g opacity="0.2">
		<polygon points="127.698,132.1 128.019,132.021 112.021,132.021 111.701,132.1 171.691,354.868 187.372,353.688 		"/>
	</g>
	<g>
		<path fill="#E6E9ED" d="M172.011,419.975h287.954c4.398,0,7.999,3.601,7.999,7.999c0,4.397-3.601,7.998-7.999,7.998H172.011
			c-22.074,0-39.993-14.317-39.993-31.994h0.16l23.598-48.953L68.028,28.038H12.037c-4.398,0-7.999-3.601-7.999-7.999
			s3.601-7.999,7.999-7.999h67.349L111.701,132.1l59.99,222.769l-23.676,49.109C148.015,412.858,160.974,419.975,172.011,419.975z"
			/>
	</g>
	<g opacity="0.2">
		<path d="M200.007,443.971c-10.061,0-18.81,5.351-23.746,13.318c12.662,30.565,19.958,30.675,23.746,30.675
			c9.424,0,17.688-15.701,23.707-30.745C218.77,449.29,210.037,443.971,200.007,443.971z"/>
	</g>
	<g opacity="0.2">
		<path d="M407.989,443.971c-10.061,0-18.81,5.351-23.746,13.318c12.67,30.565,19.966,30.675,23.746,30.675
			c9.429,0,17.692-15.701,23.715-30.745C426.752,449.29,418.02,443.971,407.989,443.971z"/>
	</g>
	<g>
		<path fill="#CCD1D9" d="M176.76,435.972c0,0,15.248,43.993,23.247,43.993s22.872-43.993,22.872-43.993H176.76z"/>
	</g>
	<g>
		<path fill="#CCD1D9" d="M384.915,435.972c0,0,15.247,43.993,23.246,43.993s22.872-43.993,22.872-43.993H384.915z"/>
	</g>
	<g>
		<g>
			<path fill="#3A3847" d="M171.687,358.867c-2.074,0-3.827-1.602-3.983-3.702c-0.168-2.203,1.484-4.125,3.687-4.289l301.12-22.637
				l30.762-192.218h-391.25c-2.21,0-3.999-1.789-3.999-4s1.789-4,3.999-4h395.937c1.171,0,2.28,0.512,3.046,1.406
				c0.758,0.891,1.094,2.07,0.906,3.226l-31.995,199.968c-0.296,1.827-1.804,3.218-3.655,3.358l-304.268,22.871
				C171.89,358.859,171.789,358.867,171.687,358.867z"/>
		</g>
		<g>
			<path fill="#3A3847" d="M156.01,359.984c-1.793,0-3.426-1.211-3.878-3.039l-0.238-0.96L64.166,29.073
				c-0.574-2.132,0.691-4.324,2.828-4.898c2.109-0.562,4.328,0.688,4.898,2.828l88.005,328.021c0.531,2.14-0.777,4.312-2.921,4.843
				C156.655,359.945,156.331,359.984,156.01,359.984z"/>
		</g>
		<g>
			<path fill="#3A3847" d="M171.687,358.867c-1.761,0-3.378-1.18-3.858-2.96L75.523,13.08c-0.574-2.132,0.691-4.327,2.824-4.901
				c2.117-0.578,4.328,0.691,4.902,2.824l92.305,342.827c0.574,2.133-0.691,4.327-2.824,4.897
				C172.382,358.82,172.035,358.867,171.687,358.867z"/>
		</g>
		<g>
			<path fill="#3A3847" d="M68.028,32.038H12.037c-2.21,0-4-1.789-4-4s1.789-4,4-4h55.991c2.211,0,4,1.789,4,4
				S70.239,32.038,68.028,32.038z"/>
		</g>
		<g>
			<path fill="#3A3847" d="M79.386,16.04H12.037c-2.21,0-4-1.789-4-4c0-2.21,1.789-3.999,4-3.999h67.349c2.21,0,4,1.789,4,3.999
				C83.385,14.251,81.596,16.04,79.386,16.04z"/>
		</g>
		<g>
			<path fill="#3A3847" d="M12.037,32.038c-6.616,0-11.998-5.382-11.998-11.998S5.421,8.042,12.037,8.042c2.21,0,4,1.789,4,3.999
				c0,2.211-1.789,4-4,4c-2.207,0-4,1.792-4,4c0,2.207,1.793,3.999,4,3.999c2.21,0,4,1.789,4,4S14.248,32.038,12.037,32.038z"/>
		</g>
		<g>
			<path fill="#3A3847" d="M475.963,184.013H150.734c-2.211,0-4-1.789-4-4s1.789-4,4-4h325.229c2.211,0,3.999,1.789,3.999,4
				S478.174,184.013,475.963,184.013z"/>
		</g>
		<g>
			<path fill="#3A3847" d="M459.965,240.004H174.73c-2.211,0-4-1.789-4-4c0-2.21,1.789-3.999,4-3.999h285.235
				c2.211,0,4,1.789,4,3.999C463.965,238.215,462.176,240.004,459.965,240.004z"/>
		</g>
		<g>
			<path fill="#3A3847" d="M443.968,295.995H190.727c-2.21,0-3.999-1.789-3.999-4s1.789-3.999,3.999-3.999h253.241
				c2.211,0,3.999,1.788,3.999,3.999S446.179,295.995,443.968,295.995z"/>
		</g>
		<g>
			<path fill="#3A3847" d="M148.011,407.977c-0.582,0-1.172-0.125-1.734-0.398c-1.987-0.953-2.823-3.343-1.862-5.335l23.676-49.117
				c0.957-1.984,3.347-2.828,5.339-1.859c1.988,0.953,2.824,3.344,1.863,5.336l-23.676,49.116
				C150.929,407.148,149.5,407.977,148.011,407.977z"/>
		</g>
		<g>
			<path fill="#3A3847" d="M132.174,407.977c-0.582,0-1.172-0.125-1.734-0.398c-1.988-0.953-2.824-3.343-1.863-5.335l23.598-48.953
				l7.272,3.328l-23.668,49.101C135.091,407.148,133.662,407.977,132.174,407.977z"/>
		</g>
		<g>
			<path fill="#3A3847" d="M459.965,439.972H172.011c-2.21,0-3.999-1.789-3.999-4c0-2.21,1.789-3.999,3.999-3.999h287.954
				c2.211,0,4,1.789,4,3.999C463.965,438.183,462.176,439.972,459.965,439.972z"/>
		</g>
		<g>
			<path fill="#3A3847" d="M459.965,423.974H172.011c-2.21,0-3.999-1.789-3.999-3.999c0-2.211,1.789-3.999,3.999-3.999h287.954
				c2.211,0,4,1.788,4,3.999C463.965,422.185,462.176,423.974,459.965,423.974z"/>
		</g>
		<g>
			<path fill="#3A3847" d="M172.011,439.972c-24.258,0-43.993-16.146-43.993-35.994c0-2.211,1.789-4,4-4c2.21,0,3.999,1.789,3.999,4
				c0,15.435,16.146,27.995,35.994,27.995c2.211,0,4,1.789,4,3.999C176.011,438.183,174.222,439.972,172.011,439.972z"/>
		</g>
		<g>
			<path fill="#3A3847" d="M172.011,423.974c-13.217,0-27.995-8.553-27.995-19.996c0-2.211,1.789-4,3.999-4c2.211,0,4,1.789,4,4
				c0,5.835,10.28,11.998,19.997,11.998c2.211,0,4,1.788,4,3.999C176.011,422.185,174.222,423.974,172.011,423.974z"/>
		</g>
		<g>
			<path fill="#3A3847" d="M459.965,439.972c-2.21,0-3.999-1.789-3.999-4c0-2.21,1.789-3.999,3.999-3.999c2.203,0,4-1.789,4-3.999
				c0-2.203-1.797-4-4-4c-2.21,0-3.999-1.789-3.999-3.999c0-2.211,1.789-3.999,3.999-3.999c6.617,0,11.999,5.382,11.999,11.998
				C471.964,434.589,466.582,439.972,459.965,439.972z"/>
		</g>
		<g>
			<path fill="#3A3847" d="M427.971,311.992c-2.211,0-4-1.789-4-3.999V164.016c0-2.21,1.789-3.999,4-3.999s3.999,1.789,3.999,3.999
				v143.977C431.97,310.203,430.182,311.992,427.971,311.992z"/>
		</g>
		<g>
			<path fill="#3A3847" d="M371.979,311.992c-2.21,0-3.999-1.789-3.999-3.999V164.016c0-2.21,1.789-3.999,3.999-3.999
				c2.211,0,3.999,1.789,3.999,3.999v143.977C375.979,310.203,374.19,311.992,371.979,311.992z"/>
		</g>
		<g>
			<path fill="#3A3847" d="M315.988,311.992c-2.21,0-3.999-1.789-3.999-3.999V164.016c0-2.21,1.789-3.999,3.999-3.999
				c2.211,0,4,1.789,4,3.999v143.977C319.988,310.203,318.199,311.992,315.988,311.992z"/>
		</g>
		<g>
			<path fill="#3A3847" d="M259.998,311.992c-2.211,0-4-1.789-4-3.999V164.016c0-2.21,1.79-3.999,4-3.999
				c2.21,0,3.999,1.789,3.999,3.999v143.977C263.997,310.203,262.208,311.992,259.998,311.992z"/>
		</g>
		<g>
			<path fill="#3A3847" d="M204.006,311.992c-2.211,0-4-1.789-4-3.999V164.016c0-2.21,1.789-3.999,4-3.999
				c2.21,0,3.999,1.789,3.999,3.999v143.977C208.005,310.203,206.217,311.992,204.006,311.992z"/>
		</g>
		<g>
			<path fill="#3A3847" d="M200.007,503.961c-17.642,0-31.995-14.349-31.995-31.995c0-3.21,0.453-6.217,1.382-9.193
				c0.656-2.109,2.882-3.289,5.011-2.617c2.109,0.656,3.28,2.898,2.62,5.008c-0.683,2.187-1.015,4.413-1.015,6.803
				c0,13.232,10.764,23.996,23.996,23.996s23.996-10.764,23.996-23.996c0-2.39-0.332-4.616-1.015-6.803
				c-0.66-2.109,0.512-4.352,2.62-5.008c2.117-0.672,4.351,0.516,5.011,2.617c0.929,2.977,1.382,5.983,1.382,9.193
				C232.001,489.612,217.648,503.961,200.007,503.961z"/>
		</g>
		<g>
			<path fill="#3A3847" d="M200.007,483.964c-8.995,0-17.903-21.059-23.789-38.728c-0.699-2.094,0.433-4.358,2.527-5.054
				c2.121-0.703,4.358,0.43,5.058,2.522c5.511,16.528,13.221,32.089,16.494,33.3c2.695-1.211,10.405-16.771,15.916-33.3
				c0.695-2.093,2.944-3.226,5.058-2.522c2.094,0.695,3.226,2.96,2.527,5.054C217.91,462.905,209.001,483.964,200.007,483.964z"/>
		</g>
		<g>
			<path fill="#3A3847" d="M407.974,503.961c-17.638,0-31.995-14.349-31.995-31.995c0-3.21,0.453-6.217,1.383-9.193
				c0.656-2.109,2.883-3.289,5.008-2.617c2.108,0.656,3.28,2.898,2.624,5.008c-0.688,2.187-1.016,4.413-1.016,6.803
				c0,13.232,10.765,23.996,23.996,23.996c13.232,0,23.996-10.764,23.996-23.996c0-2.335-0.312-4.601-0.968-6.912
				c-0.602-2.125,0.632-4.336,2.765-4.93c2.093-0.602,4.327,0.625,4.929,2.758c0.859,3.031,1.273,5.999,1.273,9.084
				C439.969,489.612,425.611,503.961,407.974,503.961z"/>
		</g>
		<g>
			<path fill="#3A3847" d="M407.974,483.964c-8.998,0-17.903-21.059-23.793-38.728c-0.695-2.094,0.438-4.358,2.531-5.054
				c2.108-0.703,4.358,0.43,5.062,2.522c5.507,16.528,13.217,32.089,16.489,33.3c2.695-1.211,10.405-16.771,15.911-33.3
				c0.703-2.093,2.953-3.226,5.062-2.522c2.093,0.695,3.226,2.96,2.53,5.054C425.877,462.905,416.973,483.964,407.974,483.964z"/>
		</g>
	</g>
</g>
</svg>
