<svg xmlns="http://www.w3.org/2000/svg" viewBox="0 0 64 64"><g id="_04-Gift" data-name="04-Gift"><rect x="8" y="15" width="48" height="48" style="fill:#262626"/><polygon points="52 15 52 59 12 59 12 15 8 15 8 63 56 63 56 15 52 15" style="fill:#101012"/><path d="M16,7c5,0,11,8,11,8H15a4,4,0,0,1-4-4V10a3,3,0,0,1,3-3Z" style="fill:#e04323"/><path d="M29,11v4H27S21,7,16,7H14a3,3,0,0,0-3,3V7a6.009,6.009,0,0,1,6-6c9,0,12,9,12,9Z" style="fill:#cd2b15"/><path d="M35,11v4H29V11a2.006,2.006,0,0,1,2-2h2A2.006,2.006,0,0,1,35,11Z" style="fill:#262626"/><path d="M53,10v1a4,4,0,0,1-4,4H37s6-8,11-8h2A3,3,0,0,1,53,10Z" style="fill:#e04323"/><path d="M51.24,2.76A5.944,5.944,0,0,1,53,7v3a3,3,0,0,0-3-3H48c-5,0-11,8-11,8H35V10s3-9,12-9A5.944,5.944,0,0,1,51.24,2.76Z" style="fill:#cd2b15"/><path d="M50,7H48c-5,0-11,8-11,8h3.287c.713-2,3.781-4,6.338-4h1.75C49.828,11,51,11.34,51,13v1a4.5,4.5,0,0,1-.041.468A3.982,3.982,0,0,0,53,11V10A3,3,0,0,0,50,7Z" style="fill:#b82115"/><path d="M14,7h2c5,0,11,8,11,8H23.713c-.713-2-3.781-4-6.338-4h-1.75C14.172,11,13,11.34,13,13v1a4.5,4.5,0,0,0,.041.468A3.982,3.982,0,0,1,11,11V10A3,3,0,0,1,14,7Z" style="fill:#b82115"/><path d="M52,4.5a3.45,3.45,0,0,0-.183-1.065A5.958,5.958,0,0,0,47,1a11.756,11.756,0,0,0-8.968,4.048c-.008.108-.032.212-.032.322h0a4.355,4.355,0,0,0,4.086,4.357C43.931,8.233,46.04,7,48,7h2a3,3,0,0,1,.8.12A3.474,3.474,0,0,0,52,4.5Z" style="fill:#e04323"/><path d="M12,4.5a3.45,3.45,0,0,1,.183-1.065A5.958,5.958,0,0,1,17,1a11.756,11.756,0,0,1,8.968,4.048c.008.108.032.212.032.322h0a4.355,4.355,0,0,1-4.086,4.357C20.069,8.233,17.96,7,16,7H14a3,3,0,0,0-.8.12A3.474,3.474,0,0,1,12,4.5Z" style="fill:#e04323"/><path d="M31,12V10a1,1,0,0,1,1-1H31a2.006,2.006,0,0,0-2,2v4h6V13H32A1,1,0,0,1,31,12Z" style="fill:#101012"/><path d="M18.528,56H17.472A3.37,3.37,0,0,1,14,52.752V51.364h2v1.388A1.375,1.375,0,0,0,17.472,54h1.056A1.375,1.375,0,0,0,20,52.752a1.237,1.237,0,0,0-.78-1.1l-3.268-1.486A3.254,3.254,0,0,1,14,47.248,3.37,3.37,0,0,1,17.472,44h1.056A3.37,3.37,0,0,1,22,47.248v1.388H20V47.248A1.375,1.375,0,0,0,18.528,46H17.472A1.375,1.375,0,0,0,16,47.248a1.237,1.237,0,0,0,.78,1.1l3.268,1.486A3.254,3.254,0,0,1,22,52.752,3.37,3.37,0,0,1,18.528,56Z" style="fill:#fff"/><path d="M41,56H35a1,1,0,0,1-1-1V44h2V54h5Z" style="fill:#fff"/><path d="M49,46V44H44a1,1,0,0,0-1,1V55a1,1,0,0,0,1,1h5V54H45V51h3V49H45V46Z" style="fill:#fff"/><path d="M31.97,52.757l-1.758-7.029a2.28,2.28,0,0,0-4.424,0L24.03,52.757A1,1,0,0,0,24,53v3h2V54h4v2h2V53A1,1,0,0,0,31.97,52.757Zm-4.242-6.544a.291.291,0,0,1,.544,0L29.719,52H26.281Z" style="fill:#fff"/><path d="M20.5,28.5a1.988,1.988,0,0,0-.691-1.5A1.992,1.992,0,0,0,18.5,23.5H15a.5.5,0,0,0-.5.5v6a.5.5,0,0,0,.5.5h3.5A2,2,0,0,0,20.5,28.5Zm-2,1h-3v-2h3a1,1,0,0,1,0,2Zm0-3h-3v-2h3a1,1,0,0,1,0,2Z" style="fill:#fff"/><path d="M23.5,29.5v-6h-1V30a.5.5,0,0,0,.5.5h4v-1Z" style="fill:#fff"/><path d="M33.49,23.9a.5.5,0,0,0-.49-.4H30a.5.5,0,0,0-.49.4L28.5,29v1.5h1l0-1H33.5v1h1l-.008-1.6Zm-3.88,4.6.8-4h2.181l.808,4Z" style="fill:#fff"/><path d="M42.5,28h-1A1.5,1.5,0,0,1,40,29.5H39A1.5,1.5,0,0,1,37.5,28V26A1.5,1.5,0,0,1,39,24.5h1A1.5,1.5,0,0,1,41.5,26h1A2.5,2.5,0,0,0,40,23.5H39A2.5,2.5,0,0,0,36.5,26v2A2.5,2.5,0,0,0,39,30.5h1A2.5,2.5,0,0,0,42.5,28Z" style="fill:#fff"/><path d="M49.3,29.6,45.833,27,49.3,24.4a.5.5,0,0,0,.2-.4v-.5h-1v.25L45.5,26V23.5h-1v7h1V28l3,2.25v.25h1V30A.5.5,0,0,0,49.3,29.6Z" style="fill:#fff"/><path d="M18,37.5v-1H15.5v-2H19v-1H15a.5.5,0,0,0-.5.5v6.5h1v-3Z" style="fill:#fff"/><path d="M25.354,39.646,23.207,37.5H23.5a2,2,0,0,0,0-4H21a.5.5,0,0,0-.5.5v6.5h1v-3h.293L24.5,40.207V40.5h1V40A.5.5,0,0,0,25.354,39.646ZM23.5,34.5a1,1,0,0,1,0,2h-2v-2" style="fill:#fff"/><rect x="27.5" y="33.5" width="1" height="7" style="fill:#fff"/><path d="M35.5,37A3.5,3.5,0,0,0,32,33.5H31a.5.5,0,0,0-.5.5v6a.5.5,0,0,0,.5.5h1A3.5,3.5,0,0,0,35.5,37ZM32,39.5h-.5v-5H32a2.5,2.5,0,0,1,0,5Z" style="fill:#fff"/><path d="M42.49,33.9a.5.5,0,0,0-.49-.4H39a.5.5,0,0,0-.49.4L37.5,39v1.5h1l-.005-1H42.5v1h1l-.008-1.6Zm-3.88,4.6.8-4h2.181l.808,4Z" style="fill:#fff"/><path d="M49.447,34.224A.512.512,0,0,0,49.5,34v-.5h-1v.382l-1.5,3-1.5-3V33.5h-1V34a.512.512,0,0,0,.053.224L46.5,38.118V40.5h1V38.118Z" style="fill:#fff"/></g></svg>